<svg xmlns="http://www.w3.org/2000/svg" version="1.1" xmlns:xlink="http://www.w3.org/1999/xlink" xmlns:svgjs="http://svgjs.com/svgjs" width="512" height="512" x="0" y="0" viewBox="0 0 176 176" style="enable-background:new 0 0 512 512" xml:space="preserve" class=""><g><linearGradient xmlns="http://www.w3.org/2000/svg" id="linear-gradient" gradientUnits="userSpaceOnUse" x1="72.32" x2="170.47" y1="69.87" y2="168.02"><stop offset="0" stop-color="#000c1a"></stop><stop offset=".89" stop-color="#000c1a" stop-opacity="0"></stop></linearGradient><g xmlns="http://www.w3.org/2000/svg" id="Layer_2" data-name="Layer 2"><g id="_11.tumblr" data-name="11.tumblr"><path id="background" d="m0 0h144.46a31.54 31.54 0 0 1 31.54 31.54v144.46a0 0 0 0 1 0 0h-144.46a31.54 31.54 0 0 1 -31.54-31.54v-144.46a0 0 0 0 1 0 0z" fill="#001e42" data-original="#001e42" class=""></path><path id="shadow" d="m176 119.15v56.85h-51.95l-45.41-45.41 8.1-19.01-27.69-27.69 35.79-45.89z" fill="url(#linear-gradient)" data-original="url(#linear-gradient)"></path><path id="icon" d="m111.61 117.52a11.82 11.82 0 0 1 -8.61 3.42c-5.63 0-8.16-3.42-8.16-8.46v-28.58h18.23v-17.33h-18.23v-28.57h-13.72a38.7 38.7 0 0 1 -22.07 28.74v17.16h13.39v32.91c0 4.57 4.3 21.19 26.26 21.19 12.91 0 18.25-8.31 18.25-8.31z" fill="#ffffff" data-original="#ffffff"></path></g></g></g></svg>
