<svg xmlns="http://www.w3.org/2000/svg" version="1.1" xmlns:xlink="http://www.w3.org/1999/xlink" xmlns:svgjs="http://svgjs.com/svgjs" width="512" height="512" x="0" y="0" viewBox="0 0 176 176" style="enable-background:new 0 0 512 512" xml:space="preserve" class=""><g><g xmlns="http://www.w3.org/2000/svg" id="Layer_2" data-name="Layer 2"><g id="_01.facebook" data-name="01.facebook"><path id="background" d="m0 0h144.46a31.54 31.54 0 0 1 31.54 31.54v144.46a0 0 0 0 1 0 0h-144.46a31.54 31.54 0 0 1 -31.54-31.54v-144.46a0 0 0 0 1 0 0z" fill="#334c8c" data-original="#334c8c" class=""></path><path id="icon" d="m113.34 78.53-1.61 13.93a2.6 2.6 0 0 1 -2.56 2.34h-14.56l-.07 41.32a1.87 1.87 0 0 1 -1.85 1.88h-14.69a1.87 1.87 0 0 1 -1.84-1.89l.07-41.31h-11a2.61 2.61 0 0 1 -2.58-2.64l-.06-13.93a2.61 2.61 0 0 1 2.58-2.65h10.98v-13.46c0-15.62 9.3-24.12 22.9-24.12h11.15a2.63 2.63 0 0 1 2.59 2.66v11.73a2.62 2.62 0 0 1 -2.59 2.61h-6.84c-7.39 0-8.83 3.6-8.83 8.89v11.69h16.25a2.61 2.61 0 0 1 2.56 2.95z" fill="#ffffff" data-original="#ffffff" class=""></path></g></g></g></svg>
