<svg xmlns="http://www.w3.org/2000/svg" version="1.1" xmlns:xlink="http://www.w3.org/1999/xlink" xmlns:svgjs="http://svgjs.com/svgjs" width="512" height="512" x="0" y="0" viewBox="0 0 176 176" style="enable-background:new 0 0 512 512" xml:space="preserve" class=""><g><g xmlns="http://www.w3.org/2000/svg" id="Layer_2" data-name="Layer 2"><g id="_02.twitter" data-name="02.twitter"><path id="background" d="m0 0h144.46a31.54 31.54 0 0 1 31.54 31.54v144.46a0 0 0 0 1 0 0h-144.46a31.54 31.54 0 0 1 -31.54-31.54v-144.46a0 0 0 0 1 0 0z" fill="#00a6de" data-original="#00a6de" class=""></path><path id="icon" d="m137.8 57.74a42.11 42.11 0 0 1 -8.57 9.4 3.7 3.7 0 0 0 -1.37 2.86v.33a60.26 60.26 0 0 1 -3.86 20.87 61.06 61.06 0 0 1 -11.39 19.07 55.66 55.66 0 0 1 -24.61 16.3 61.76 61.76 0 0 1 -19.4 3 59.11 59.11 0 0 1 -29.73-8 1.71 1.71 0 0 1 -.82-1.89 1.66 1.66 0 0 1 1.61-1.24h2.5a39.77 39.77 0 0 0 22.28-6.76 21.64 21.64 0 0 1 -17.07-14.68 1.13 1.13 0 0 1 1.29-1.45 20.27 20.27 0 0 0 3.63.34h.46a21.6 21.6 0 0 1 -12.59-19.89 1.13 1.13 0 0 1 1.67-1 19.39 19.39 0 0 0 4.92 1.91 21.61 21.61 0 0 1 -3.51-26.2 1.13 1.13 0 0 1 1.85-.15 56.53 56.53 0 0 0 38.85 20.76h.06a.82.82 0 0 0 .6-.27.79.79 0 0 0 .19-.6 23.26 23.26 0 0 1 .51-7.94 20.6 20.6 0 0 1 2.7-6.32 20.89 20.89 0 0 1 11.4-8.73 23 23 0 0 1 6.83-1.05 21.55 21.55 0 0 1 14.26 5.38 2.78 2.78 0 0 0 1.85.71 3 3 0 0 0 .66-.09 40 40 0 0 0 10.54-4.35 1.13 1.13 0 0 1 1.65 1.31 21.52 21.52 0 0 1 -5.67 9 39.08 39.08 0 0 0 6.89-2.33 1.13 1.13 0 0 1 1.39 1.7z" fill="#ffffff" data-original="#ffffff"></path></g></g></g></svg>
