<svg xmlns="http://www.w3.org/2000/svg" version="1.1" xmlns:xlink="http://www.w3.org/1999/xlink" xmlns:svgjs="http://svgjs.com/svgjs" width="512" height="512" x="0" y="0" viewBox="0 0 176 176" style="enable-background:new 0 0 512 512" xml:space="preserve" class=""><g><g xmlns="http://www.w3.org/2000/svg" id="Layer_2" data-name="Layer 2"><g id="_08.whatsapp" data-name="08.whatsapp"><path id="background" d="m0 0h144.46a31.54 31.54 0 0 1 31.54 31.54v144.46a0 0 0 0 1 0 0h-144.46a31.54 31.54 0 0 1 -31.54-31.54v-144.46a0 0 0 0 1 0 0z" fill="#2aa81a" data-original="#2aa81a" class=""></path><g id="icon" fill="#fff"><path d="m123.27 52.73a49.61 49.61 0 0 0 -79.47 57.39l-5.26 25.55a1.88 1.88 0 0 0 .3 1.49 1.93 1.93 0 0 0 2 .79l25-5.94a49.6 49.6 0 0 0 57.36-79.28zm-7.81 62.33a38.91 38.91 0 0 1 -44.74 7.32l-3.49-1.74-15.36 3.64v-.2l3.19-15.49-1.71-3.37a38.82 38.82 0 0 1 7.15-45.08 38.82 38.82 0 0 1 54.92 0l.2.2a38.85 38.85 0 0 1 -.2 54.72z" fill="#ffffff" data-original="#ffffff"></path><path d="m114.1 103.72c-1.88 3-4.86 6.59-8.59 7.49-6.55 1.58-16.59.05-29.13-11.6l-.15-.14c-10.92-10.19-13.81-18.67-13.12-25.4.38-3.82 3.56-7.26 6.24-9.53a3.58 3.58 0 0 1 5.59 1.28l4.06 9.18a3.59 3.59 0 0 1 -.44 3.64l-2 2.65a3.52 3.52 0 0 0 -.28 3.89 38.6 38.6 0 0 0 6.94 7.7c3.41 3.08 7.21 5.91 9.6 6.88a3.5 3.5 0 0 0 3.81-.8l2.35-2.39a3.58 3.58 0 0 1 3.54-.94l9.61 2.76a3.59 3.59 0 0 1 1.97 5.33z" fill="#ffffff" data-original="#ffffff"></path></g></g></g></g></svg>
