<svg xmlns="http://www.w3.org/2000/svg" version="1.1" xmlns:xlink="http://www.w3.org/1999/xlink" xmlns:svgjs="http://svgjs.com/svgjs" width="512" height="512" x="0" y="0" viewBox="0 0 176 176" style="enable-background:new 0 0 512 512" xml:space="preserve" class=""><g><linearGradient xmlns="http://www.w3.org/2000/svg" id="linear-gradient" gradientUnits="userSpaceOnUse" x1="19.53" x2="150.7" y1="156.47" y2="25.3"><stop offset="0" stop-color="#e09b3d"></stop><stop offset=".24" stop-color="#c74c4d"></stop><stop offset=".65" stop-color="#c21975"></stop><stop offset="1" stop-color="#7024c4"></stop></linearGradient><g xmlns="http://www.w3.org/2000/svg" id="Layer_2" data-name="Layer 2"><g id="_05.instagram" data-name="05.instagram"><path id="background" d="m0 0h144.46a31.54 31.54 0 0 1 31.54 31.54v144.46a0 0 0 0 1 0 0h-144.46a31.54 31.54 0 0 1 -31.54-31.54v-144.46a0 0 0 0 1 0 0z" fill="url(#linear-gradient)" data-original="url(#linear-gradient)" class=""></path><g id="icon"><g id="icon-2" fill="#fff" data-name="icon"><path d="m108.21 38h-40.42a29.83 29.83 0 0 0 -29.79 29.79v40.42a29.83 29.83 0 0 0 29.79 29.79h40.42a29.83 29.83 0 0 0 29.79-29.79v-40.42a29.83 29.83 0 0 0 -29.79-29.79zm19.73 70.21a19.73 19.73 0 0 1 -19.73 19.73h-40.42a19.73 19.73 0 0 1 -19.73-19.73v-40.42a19.73 19.73 0 0 1 19.73-19.73h40.42a19.73 19.73 0 0 1 19.73 19.73z" fill="#ffffff" data-original="#ffffff" class=""></path><path d="m88 62.14a25.87 25.87 0 1 0 25.86 25.86 25.9 25.9 0 0 0 -25.86-25.86zm0 41.66a15.8 15.8 0 1 1 15.8-15.8 15.8 15.8 0 0 1 -15.8 15.8z" fill="#ffffff" data-original="#ffffff" class=""></path><circle cx="114.01" cy="62.14" r="6.39" fill="#ffffff" data-original="#ffffff" class=""></circle></g></g></g></g></g></svg>
