<svg xmlns="http://www.w3.org/2000/svg" version="1.1" xmlns:xlink="http://www.w3.org/1999/xlink" xmlns:svgjs="http://svgjs.com/svgjs" width="512" height="512" x="0" y="0" viewBox="0 0 176 176" style="enable-background:new 0 0 512 512" xml:space="preserve" class=""><g><g xmlns="http://www.w3.org/2000/svg" id="Layer_2" data-name="Layer 2"><g id="_04.youtube" data-name="04.youtube"><path id="background" d="m0 0h144.46a31.54 31.54 0 0 1 31.54 31.54v144.46a0 0 0 0 1 0 0h-144.46a31.54 31.54 0 0 1 -31.54-31.54v-144.46a0 0 0 0 1 0 0z" fill="#f20000" data-original="#f20000" class=""></path><path id="icon" d="m135.66 63.94c-2-6.15-8.62-9.88-14.71-10.73a311.52 311.52 0 0 0 -65.9 0c-6.09.85-12.71 4.58-14.71 10.73a124.86 124.86 0 0 0 0 48.12c2 6.15 8.62 9.88 14.71 10.74a312.85 312.85 0 0 0 65.9 0c6.09-.86 12.71-4.59 14.71-10.74a124.86 124.86 0 0 0 0-48.12zm-59.66 43.22v-38.32l31.24 19.16z" fill="#ffffff" data-original="#ffffff"></path></g></g></g></svg>
