<svg xmlns="http://www.w3.org/2000/svg" version="1.1" xmlns:xlink="http://www.w3.org/1999/xlink" xmlns:svgjs="http://svgjs.com/svgjs" width="512" height="512" x="0" y="0" viewBox="0 0 512 512" style="enable-background:new 0 0 512 512" xml:space="preserve" class=""><g><g xmlns="http://www.w3.org/2000/svg" id="_x31_9_Layers"><g id="Layers_2_"><g id="Layers_1_"><path d="m491.429 360.28c-11.323-6.247-29.684-16.377-51.29-28.298h-368.278l-51.541 28.437c-5.166 2.85-5.167 10.276-.001 13.126 40.201 22.18 171.131 94.417 218.434 120.516 10.74 5.926 23.762 5.922 34.502-.004l218.17-120.37c5.277-2.913 5.282-10.496.004-13.407z" fill="#ffffff" data-original="#ffffff"></path><path d="m273.262 424.052 166.878-92.07c-55.66-30.709-132.87-73.307-166.881-92.072-10.744-5.928-23.775-5.926-34.52.002l-166.878 92.07c55.661 30.71 132.876 73.311 166.885 92.074 10.744 5.928 23.771 5.924 34.516-.004z" fill="#c8daff" data-original="#c8daff"></path><path d="m491.429 249.28c-10.359-5.715-26.616-14.685-45.853-25.298h-379.153l-46.104 25.437c-5.166 2.85-5.167 10.276-.001 13.126 40.201 22.18 171.131 94.417 218.434 120.516 10.74 5.926 23.762 5.922 34.502-.004l218.17-120.37c5.278-2.913 5.283-10.496.005-13.407z" fill="#ffffff" data-original="#ffffff"></path><path d="m273.262 319.052 172.315-95.07c-55.954-30.871-137.184-75.688-172.319-95.072-10.744-5.928-23.775-5.926-34.52.002l-172.315 95.07c55.956 30.872 137.189 75.691 172.322 95.074 10.745 5.928 23.772 5.924 34.517-.004z" fill="#c8daff" data-original="#c8daff"></path><path d="m491.429 138.315c-16.735-9.233-48.842-26.947-84.086-46.392l-349.863 26.028-37.155 20.499c-5.169 2.852-5.176 10.278-.006 13.13 40.2 22.18 171.117 94.409 218.426 120.511 10.744 5.928 23.772 5.924 34.516-.004l218.163-120.366c5.278-2.911 5.283-10.494.005-13.406z" fill="#c8daff" data-original="#c8daff"></path><path d="m312.197 186.42c15.858-8.749 35.583-19.632 55.929-30.857 25.123-13.861 38.267-38.531 39.218-63.639-50.031-27.604-106.385-58.696-134.086-73.979-10.744-5.928-23.775-5.926-34.52.002l-181.258 100.004 124.098 68.468c40.652 22.429 89.967 22.429 130.619.001z" fill="#ffffff" data-original="#ffffff"></path></g><path id="Layers" d="m495.297 353.849-76.772-42.358 76.772-42.358c4.783-2.639 7.754-7.671 7.754-13.134s-2.971-10.495-7.754-13.134l-76.773-42.357 76.524-42.22c4.834-2.667 7.837-7.753 7.837-13.273 0-5.518-3.001-10.601-7.832-13.267l-218.172-120.37c-13.074-7.214-28.688-7.212-41.766.002l-101.629 56.071c-3.627 2.001-4.944 6.563-2.943 10.19 2.002 3.627 6.564 4.946 10.189 2.944l101.629-56.071c8.541-4.712 18.736-4.712 27.273-.002l218.235 120.408c.022.041.021.152-.067.234l-218.163 120.367c-8.541 4.712-18.735 4.713-27.271.004l-218.42-120.507 85.94-47.415c3.627-2.001 4.944-6.563 2.943-10.19-2-3.626-6.562-4.946-10.189-2.944l-85.94 47.415c-4.784 2.64-7.757 7.673-7.757 13.136 0 5.459 2.97 10.489 7.751 13.127l76.78 42.361-76.774 42.357c-4.782 2.639-7.754 7.671-7.754 13.134s2.972 10.495 7.754 13.134l76.773 42.358-76.773 42.358c-4.782 2.638-7.754 7.67-7.754 13.133s2.971 10.495 7.754 13.134l218.413 120.504c6.539 3.607 13.712 5.411 20.885 5.411s14.346-1.804 20.885-5.411l218.411-120.503c4.783-2.639 7.755-7.671 7.756-13.133 0-5.463-2.972-10.496-7.755-13.135zm-225.658 133.637c-8.541 4.712-18.736 4.712-27.277 0l-218.414-120.503 85.053-46.926 33.474 18.469-43.25 21.625c-3.549 1.774-5.344 5.986-3.842 9.658 1.208 2.952 4.023 4.676 6.953 4.676 1.127 0 2.271-.255 3.349-.793l52.735-26.367 32.758 18.073-40.979 20.49c-3.704 1.852-5.206 6.357-3.354 10.062 1.313 2.628 3.963 4.147 6.714 4.147 1.127 0 2.271-.255 3.349-.793l50.216-25.108 27.99 15.443c1.51.833 3.057 1.559 4.627 2.2l-38.389 19.695c-3.686 1.891-5.14 6.411-3.249 10.096 1.328 2.59 3.955 4.078 6.679 4.078 1.152 0 2.322-.266 3.418-.829l68.484-35.135c.021-.011.04-.024.061-.035.046-.025.093-.046.138-.071l68.315-37.691c3.596-1.984 5.203-6.485 3.328-10.138-1.94-3.78-6.605-5.185-10.298-3.148l-68.591 37.843c-8.541 4.712-18.736 4.712-27.277 0l-218.412-120.504 85.053-46.925 53.767 29.665-38.18 19.09c-3.704 1.852-5.206 6.357-3.354 10.062 1.313 2.628 3.963 4.147 6.714 4.147 1.127 0 2.271-.255 3.349-.793l47.416-23.708 44.934 24.791-39.299 19.65c-3.704 1.852-5.206 6.357-3.354 10.062 1.313 2.628 3.963 4.147 6.714 4.147 1.127 0 2.271-.255 3.349-.793l48.894-24.447c5.164 2.077 10.604 3.121 16.046 3.12 7.173 0 14.348-1.804 20.887-5.412l126.243-69.651 30.393 16.819-181.157 100.451c-3.623 2.009-4.931 6.574-2.923 10.196 1.37 2.47 3.929 3.864 6.566 3.864 1.23 0 2.479-.304 3.63-.942l189.365-105.003 39.05 21.61-118.906 65.604c-3.627 2.001-4.944 6.563-2.943 10.19 1.367 2.478 3.93 3.878 6.573 3.878 1.226 0 2.468-.301 3.616-.935l26.663-14.711 30.419 16.805-181.11 100.426c-3.623 2.009-4.931 6.574-2.923 10.196 1.37 2.47 3.929 3.864 6.566 3.864 1.23 0 2.479-.304 3.63-.942l189.331-104.985 39.083 21.591z" fill="#1b7abe" data-original="#548cfe" class=""></path></g></g></g></svg>
