<svg xmlns="http://www.w3.org/2000/svg" version="1.1" xmlns:xlink="http://www.w3.org/1999/xlink"
     xmlns:svgjs="http://svgjs.com/svgjs" width="512" height="512" x="0" y="0" viewBox="0 0 512 512"
     style="enable-background:new 0 0 512 512" xml:space="preserve" class=""><g><g xmlns="http://www.w3.org/2000/svg"><g><g><path d="m46.533 305.941h392.715v86.775h-392.715z" fill="#fb6a3b" data-original="#fb6a3b" class=""></path><path
    d="m46.534 305.941h139.875v25.12h-139.875z" fill="#fb5532" data-original="#fb5532"></path><path
    d="m405.298 305.937h33.955v86.783h-33.955z" fill="#fb5532" data-original="#fb5532"></path><ellipse cx="234.106"
                                                                                                       cy="332.622"
                                                                                                       fill="#b9acac"
                                                                                                       rx="156.519"
                                                                                                       ry="155.404"
                                                                                                       data-original="#b9acac"></ellipse><g
    fill="#9e9797"><path d="m186.408 184.579c-62.636 19.88-108.12 77.854-108.801 146.483h108.801z" fill="#9e9797" data-original="#9e9797" class=""></path>
    <path
        d="m234.102 177.215c-5.738 0-11.404.309-16.977.906 78.459 8.407 139.549 74.369 139.549 154.497 0 26.877-6.88 52.154-18.974 74.204h-241.158c5.367 9.783 11.786 18.914 19.065 27.285h170.95c12.175 0 17.322 15.514 7.566 22.797-21.914 16.357-48.293 27.135-76.997 30.211 5.573.598 11.239.906 16.977.906 86.443 0 156.526-69.568 156.526-155.403-.001-85.824-70.084-155.403-156.527-155.403z"
        fill="#9e9797" data-original="#9e9797" class=""></path>
    <ellipse cx="234.106" cy="332.622" rx="115.322" ry="114.501" fill="#9e9797" data-original="#9e9797"
             class=""></ellipse></g><path
    d="m234.11 218.122c-63.171 0-114.475 50.417-115.309 112.94h8.829c6.758 0 12.393-5.027 13.351-11.724 6.49-45.297 45.709-80.118 93.129-80.118h.536c30.277.165 57.629 18.173 70.352 45.658 6.727 14.526 10.477 30.7 10.477 47.739 0 25.301-8.262 48.687-22.262 67.642h33.955c14-18.945 22.262-42.331 22.262-67.632 0-63.243-51.633-114.505-115.32-114.505zm-23.292-20.79c.041 1.154.237 2.874.628 5.295-.134-2.204-.35-3.945-.628-5.295z"
    fill="#756f6f" data-original="#756f6f" class=""></path><path
    d="m321.934 406.821c-9.57 11.167-21.263 20.48-34.47 27.321-.299-.021-.598-.031-.907-.031h-105.872c-13.176-6.84-24.858-16.143-34.408-27.29z"
    fill="#756f6f" data-original="#756f6f" class=""></path><ellipse cx="234.106" cy="332.622" fill="#5b5555" rx="20.039"
                                                                    ry="19.897" data-original="#5b5555"
                                                                    class=""></ellipse><g><path d="m18.449 390.239c-4.268 0-7.726-3.459-7.726-7.726v-15.571c0-4.268 3.459-7.726 7.726-7.726s7.726 3.459 7.726 7.726v15.571c0 4.267-3.459 7.726-7.726 7.726z" fill="#433f43" data-original="#433f43"></path></g><path
    d="m475.674 411.972h-464.997c-5.69 0-10.302-4.612-10.302-10.302v-11.61c0-5.69 4.612-10.302 10.302-10.302h464.997c5.69 0 10.302 4.612 10.302 10.302v11.61c0 5.69-4.612 10.302-10.302 10.302z"
    fill="#5b5555" data-original="#5b5555" class=""></path><path
    d="m485.972 390.061v11.61c0 5.687-4.605 10.302-10.302 10.302h-33.955c5.697 0 10.302-4.615 10.302-10.302v-11.61c0-5.687-4.605-10.302-10.302-10.302h33.955c5.697.001 10.302 4.616 10.302 10.302z"
    fill="#433f43" data-original="#433f43"></path><path
    d="m78.384 236.154-41.583 6.432c-13.647 2.111-24.911 11.722-29.06 24.802-3.278 10.331-5.824 20.951-7.605 31.796-1.026 6.245 3.882 11.905 10.256 11.905h67.992z"
    fill="#fb6a3b" data-original="#fb6a3b" class=""></path><g><path d="m344.878 75.457 56.259 40.037-19.389 26.858c-3.604 4.993-11.122 5.15-14.788.202-4.264-5.754-9.801-11.221-16.428-15.937-6.631-4.719-13.628-8.168-20.488-10.327-5.897-1.857-8.163-8.975-4.559-13.968z" fill="#5b5555" data-original="#5b5555" class=""></path></g><path
    d="m510.531 153.941c-.268.031-.515.062-.732.093l-34.779 8.324c-2.328.556-4.409 1.896-5.862 3.771-.01.01-37.89 48.563-67.354 86.32l35.449-70.362c5.749-11.415 2.215-25.291-8.314-32.616l-71.011-49.367c-10.312-7.17-24.312-5.954-33.213 2.885l-75.482 74.946c-4.986-.474-10.024-.721-15.133-.721-37.025 0-71.042 12.764-97.847 34.099l-63.213-62.77c39.188-32.75 87.927-52.251 138.828-55.826 11.384-.793 22.211-5.182 30.72-12.733l30.813-27.341c21.098-20.944 49.737-30.628 77.8-28.341v12.424c0 3.534 1.813 6.779 4.842 8.685l94.015 59.102c1.69 1.061 3.647 1.628 5.656 1.628.834 0 1.669-.103 2.472-.288l23.663-5.573c15.33 14.648 25.159 33.562 28.682 53.661z"
    fill="#fb6a3b" data-original="#fb6a3b" class=""></path><g><g id="XMLID_198_"><path d="m278.751 120.996c-1.977 0-3.955-.755-5.464-2.263l-.075-.075c-3.017-3.018-3.017-7.91 0-10.928 3.018-3.016 7.91-3.016 10.928 0l.075.075c3.017 3.018 3.017 7.91 0 10.928-1.51 1.508-3.488 2.263-5.464 2.263z" fill="#433f43" data-original="#433f43"></path></g></g><path
    d="m351.202 24.302v9.024c-8.056-3.791-16.493-6.408-25.064-7.891 8.261-1.432 16.688-1.813 25.064-1.133z"
    fill="#fb5532" data-original="#fb5532"></path><path
    d="m510.531 153.941c-.268.031-.515.062-.732.093l-32.173 7.706c-1.906-20.47-10.292-40.146-24.343-55.888.793.196 1.607.288 2.431.288.834 0 1.669-.103 2.472-.288l23.663-5.573c15.33 14.649 25.159 33.563 28.682 53.662z"
    fill="#fb5532" data-original="#fb5532"></path><path
    d="m501.577 214.508-43.837 87.03-64.516-32.049 44.035-87.401 19.683-25.418c3.612-4.664 8.723-7.96 14.484-9.339l35.205-8.428c8.351 24.126 7.179 51.334-5.054 75.605z"
    fill="#756f6f" data-original="#756f6f" class=""></path><path
    d="m493.287 113.344-31.503 7.533c-6.823 1.632-14.021.448-19.95-3.279l-94.019-59.109c-7.51-4.722-12.062-12.933-12.062-21.759v-12.477c22.048-1.638 44.657 4.049 63.894 17.42l70.316 48.893c9.223 6.408 17.025 14.145 23.324 22.778z"
    fill="#756f6f" data-original="#756f6f" class=""></path><path
    d="m436.008 90.566-70.32-48.893c-9.334-6.49-19.46-11.167-29.937-14.072v-3.348c22.046-1.638 44.659 4.049 63.892 17.42l70.32 48.893c9.22 6.408 17.029 14.144 23.323 22.777l-29.299 7.005c-6.932-11.475-16.327-21.685-27.979-29.782z"
    fill="#5b5555" data-original="#5b5555" class=""></path><path
    d="m501.579 214.508-43.845 87.03-27.156-13.485v-.01l37.045-73.535c10.971-21.768 13.042-45.884 7.335-68.023l31.668-7.582c8.356 24.126 7.182 51.334-5.047 75.605z"
    fill="#5b5555" data-original="#5b5555" class=""></path><path
    d="m264.191 138.485h-35.277c-96.431 0-176.568 69.318-192.603 160.504-1.11 6.314 3.769 12.103 10.224 12.103h66.018c4.738 0 8.837-3.197 10.044-7.745 13.022-49.052 58.016-85.229 111.505-85.229 60.511 0 110.132 46.272 114.944 105.113.435 5.319 4.955 9.392 10.329 9.392h89.68c5.971 0 10.693-4.992 10.363-10.912-5.7-102.145-90.925-183.226-195.227-183.226z"
    fill="#ec462e" data-original="#ec462e" class=""></path><path
    d="m459.414 321.709c-5.697-102.143-90.924-183.229-195.22-183.229h-33.955c104.296 0 189.523 81.086 195.22 183.229.33 5.924-4.389 10.91-10.364 10.91h33.955c5.975-.001 10.694-4.987 10.364-10.91z"
    fill="#d53e2d" data-original="#d53e2d"></path><g><path d="m386.975 231.487h-54.578c-4.268 0-7.726-3.459-7.726-7.726s3.459-7.726 7.726-7.726h54.578c4.268 0 7.726 3.459 7.726 7.726s-3.459 7.726-7.726 7.726z" fill="#ce392e" data-original="#ce392e"></path></g><g><path d="m406.044 256.245h-54.578c-4.268 0-7.726-3.459-7.726-7.726 0-4.268 3.459-7.726 7.726-7.726h54.578c4.268 0 7.726 3.459 7.726 7.726.001 4.267-3.458 7.726-7.726 7.726z" fill="#ce392e" data-original="#ce392e"></path></g><g><path d="m427.131 305.904h-54.578c-4.268 0-7.726-3.459-7.726-7.726s3.459-7.726 7.726-7.726h54.578c4.268 0 7.726 3.459 7.726 7.726s-3.458 7.726-7.726 7.726z" fill="#ce392e" data-original="#ce392e"></path></g><g><path d="m419.475 281.147h-54.578c-4.268 0-7.726-3.459-7.726-7.726s3.459-7.726 7.726-7.726h54.578c4.268 0 7.726 3.459 7.726 7.726s-3.458 7.726-7.726 7.726z" fill="#ce392e" data-original="#ce392e"></path></g><path
    d="m102.68 82.714 13.48 15.004c9.536 10.615 8.6 26.895-2.091 36.363l-50.239 44.493c-10.691 9.468-27.088 8.539-36.624-2.076l-13.48-15.004c-9.536-10.615-8.6-26.895 2.091-36.363l50.239-44.493c10.691-9.468 27.088-8.539 36.624 2.076z"
    fill="#fc7d4b" data-original="#fc7d4b" class=""></path><path
    d="m114.065 134.081-14.794 13.104c6.295-9.509 5.656-22.376-2.339-31.276l-13.475-14.999c-9.54-10.621-25.94-11.548-36.623-2.081l19.223-18.193c10.683-9.467 27.084-8.54 36.623 2.081l13.475 14.999c9.541 10.621 8.604 26.898-2.09 36.365z"
    fill="#f46138" data-original="#f46138" class=""></path></g><g><g id="XMLID_228_"><path d="m42.044 157.585c-1.995 0-3.988-.768-5.5-2.3l-.074-.075c-2.997-3.037-2.964-7.93.073-10.927 3.036-2.997 7.929-2.965 10.927.073l.074.075c2.997 3.037 2.964 7.93-.073 10.927-1.506 1.486-3.468 2.227-5.427 2.227z" fill="#5b5555" data-original="#5b5555" class=""></path></g></g></g><g><g id="XMLID_183_"><g><path d="m65.343 290.436c-1.995 0-3.988-.768-5.5-2.3l-.074-.075c-2.997-3.037-2.964-7.93.073-10.927s7.929-2.965 10.927.073l.074.075c2.997 3.037 2.964 7.93-.073 10.927-1.506 1.486-3.468 2.227-5.427 2.227z" fill="#5b5555" data-original="#5b5555" class=""></path></g></g></g></g></g></svg>
